<svg width="51" height="52" viewBox="0 0 51 52" fill="none" xmlns="http://www.w3.org/2000/svg">
<g filter="url(#filter0_di)">
<path d="M46.2476 7.08269V19.5827C46.2476 20.0663 46.0709 20.4848 45.7175 20.8383C45.3641 21.1917 44.9456 21.3684 44.4619 21.3684H31.9619C31.1807 21.3684 30.6319 20.9964 30.3157 20.2523C29.9995 19.5269 30.1297 18.8851 30.7063 18.3271L34.5568 14.4767C31.8038 11.9283 28.5579 10.6541 24.8191 10.6541C22.8845 10.6541 21.0384 11.0308 19.2806 11.7841C17.5227 12.5375 16.0021 13.5559 14.7186 14.8394C13.4351 16.1229 12.4167 17.6435 11.6634 19.4013C10.91 21.1591 10.5333 23.0053 10.5333 24.9398C10.5333 26.8744 10.91 28.7205 11.6634 30.4783C12.4167 32.2362 13.4351 33.7568 14.7186 35.0403C16.0021 36.3238 17.5227 37.3422 19.2806 38.0955C21.0384 38.8489 22.8845 39.2256 24.8191 39.2256C27.9627 39.2256 30.79 38.3001 33.3012 36.4493C35.8124 34.5985 37.533 32.1664 38.463 29.153C38.5932 28.7252 38.8723 28.5113 39.3001 28.5113H44.8525C45.1502 28.5113 45.3827 28.6229 45.5501 28.8461C45.7361 29.0879 45.8012 29.339 45.7454 29.5994C45.02 32.8546 43.6481 35.7564 41.6299 38.3048C39.6117 40.8532 37.1377 42.8342 34.208 44.2479C31.2783 45.6616 28.1487 46.3684 24.8191 46.3684C21.9173 46.3684 19.1457 45.8011 16.5043 44.6664C13.863 43.5317 11.5843 42.0064 9.66839 40.0905C7.75247 38.1746 6.22717 35.8959 5.0925 33.2546C3.95782 30.6132 3.39049 27.8416 3.39049 24.9398C3.39049 22.038 3.95782 19.2665 5.0925 16.6251C6.22717 13.9837 7.75247 11.7051 9.66839 9.78916C11.5843 7.87324 13.863 6.34794 16.5043 5.21327C19.1457 4.0786 21.9173 3.51126 24.8191 3.51126C27.5534 3.51126 30.1995 4.02744 32.7571 5.05981C35.3148 6.09217 37.5888 7.54772 39.5791 9.42644L43.2063 5.82711C43.7458 5.25047 44.3968 5.12026 45.1595 5.43649C45.8849 5.7527 46.2476 6.30144 46.2476 7.08269Z" fill="#FFCC00"/>
</g>
<defs>
<filter id="filter0_di" x="-1" y="0" width="55" height="55" filterUnits="userSpaceOnUse" color-interpolation-filters="sRGB">
<feFlood flood-opacity="0" result="BackgroundImageFix"/>
<feColorMatrix in="SourceAlpha" type="matrix" values="0 0 0 0 0 0 0 0 0 0 0 0 0 0 0 0 0 0 127 0"/>
<feOffset dx="2" dy="3"/>
<feGaussianBlur stdDeviation="1"/>
<feColorMatrix type="matrix" values="0 0 0 0 0 0 0 0 0 0 0 0 0 0 0 0 0 0 0.25 0"/>
<feBlend mode="normal" in2="BackgroundImageFix" result="effect1_dropShadow"/>
<feBlend mode="normal" in="SourceGraphic" in2="effect1_dropShadow" result="shape"/>
<feColorMatrix in="SourceAlpha" type="matrix" values="0 0 0 0 0 0 0 0 0 0 0 0 0 0 0 0 0 0 127 0" result="hardAlpha"/>
<feOffset dx="-1"/>
<feGaussianBlur stdDeviation="1"/>
<feComposite in2="hardAlpha" operator="arithmetic" k2="-1" k3="1"/>
<feColorMatrix type="matrix" values="0 0 0 0 0 0 0 0 0 0 0 0 0 0 0 0 0 0 0.1 0"/>
<feBlend mode="normal" in2="shape" result="effect2_innerShadow"/>
</filter>
</defs>
</svg>
